<svg xmlns="http://www.w3.org/2000/svg" version="1.1" xmlns:xlink="http://www.w3.org/1999/xlink" xmlns:svgjs="http://svgjs.dev/svgjs" width="1000" height="623" viewBox="0 0 1000 623"><g transform="matrix(1,0,0,1,-0.6060606060606233,34.46069034474294)"><svg viewBox="0 0 396 247" data-background-color="#096a2e" preserveAspectRatio="xMidYMid meet" height="623" width="1000" xmlns="http://www.w3.org/2000/svg" xmlns:xlink="http://www.w3.org/1999/xlink"><g id="tight-bounds" transform="matrix(1,0,0,1,0.2400000000000091,-0.09999999999999432)"><svg viewBox="0 0 395.52 247.2" height="247.2" width="395.52"><g><svg></svg></g><g><svg viewBox="0 0 395.52 247.2" height="247.2" width="395.52"><g transform="matrix(1,0,0,1,75.54432,69.26246510028653)"><svg viewBox="0 0 244.43135999999998 108.67506979942692" height="108.67506979942692" width="244.43135999999998"><g><svg viewBox="0 0 244.43135999999998 108.67506979942692" height="108.67506979942692" width="244.43135999999998"><g><svg viewBox="0 0 244.43135999999998 108.67506979942692" height="108.67506979942692" width="244.43135999999998"><g><svg viewBox="0 0 244.43135999999998 108.67506979942692" height="108.67506979942692" width="244.43135999999998"><g><svg viewBox="0 0 244.43135999999998 108.67506979942692" height="108.67506979942692" width="244.43135999999998"><g><svg viewBox="0 0 244.43135999999998 108.67506979942692" height="108.67506979942692" width="244.43135999999998"><g transform="matrix(1,0,0,1,0,0)"><svg width="244.43135999999998" viewBox="1.6500000953674316 -36.75 104.68999481201172 46.54999923706055" height="108.67506979942692" data-palette-color="#c9efc7"><path d="M1.65 0L1.65 0 1.65-23.85Q2.45-24.25 3.8-24.63 5.15-25 6.65-25.25 8.15-25.5 9.4-25.5L9.4-25.5Q11.95-25.5 13.53-24.93 15.1-24.35 15.85-22.95 16.6-21.55 16.6-19.05L16.6-19.05 16.6-1Q16.6-0.5 16.32-0.3 16.05-0.1 14.85-0.05 13.65 0 10.8 0L10.8 0 10.8-17.3Q10.8-19.25 10.5-19.98 10.2-20.7 9.15-20.7L9.15-20.7Q8.65-20.7 8.15-20.55 7.65-20.4 7.25-20.1L7.25-20.1 7.25-1Q7.25-0.5 7-0.3 6.75-0.1 5.58-0.05 4.4 0 1.65 0ZM27.45 0.5L27.45 0.5Q25.45 0.5 23.95 0.03 22.45-0.45 21.47-1.83 20.5-3.2 20.02-5.78 19.55-8.35 19.55-12.55L19.55-12.55Q19.55-19.35 21.72-22.43 23.9-25.5 27.85-25.5L27.85-25.5Q30.55-25.5 32.27-24.43 34-23.35 34.82-20.58 35.65-17.8 35.65-12.75L35.65-12.75Q35.65-5.5 33.57-2.5 31.5 0.5 27.45 0.5ZM27.6-4.15L27.6-4.15Q28.1-4.15 28.52-4.65 28.95-5.15 29.22-6.95 29.5-8.75 29.5-12.6L29.5-12.6Q29.5-16.2 29.35-17.98 29.2-19.75 28.8-20.3 28.4-20.85 27.65-20.85L27.65-20.85Q27.1-20.85 26.65-20.28 26.2-19.7 25.95-17.93 25.7-16.15 25.7-12.6L25.7-12.6Q25.7-9.7 25.82-7.98 25.95-6.25 26.17-5.45 26.4-4.65 26.77-4.4 27.15-4.15 27.6-4.15ZM45.29 0L45.29 0 45.29-34.3Q45.29-35.55 45.74-36.05 46.19-36.55 47.42-36.65 48.64-36.75 50.89-36.75L50.89-36.75 50.89-1Q50.89-0.5 50.67-0.3 50.44-0.1 49.27-0.05 48.09 0 45.29 0ZM61.44 0.5L61.44 0.5Q59.44 0.5 57.94 0.03 56.44-0.45 55.47-1.83 54.49-3.2 54.02-5.78 53.54-8.35 53.54-12.55L53.54-12.55Q53.54-19.35 55.72-22.43 57.89-25.5 61.84-25.5L61.84-25.5Q64.54-25.5 66.27-24.43 67.99-23.35 68.82-20.58 69.64-17.8 69.64-12.75L69.64-12.75Q69.64-5.5 67.57-2.5 65.49 0.5 61.44 0.5ZM61.59-4.15L61.59-4.15Q62.09-4.15 62.52-4.65 62.94-5.15 63.22-6.95 63.49-8.75 63.49-12.6L63.49-12.6Q63.49-16.2 63.34-17.98 63.19-19.75 62.79-20.3 62.39-20.85 61.64-20.85L61.64-20.85Q61.09-20.85 60.64-20.28 60.19-19.7 59.94-17.93 59.69-16.15 59.69-12.6L59.69-12.6Q59.69-9.7 59.82-7.98 59.94-6.25 60.17-5.45 60.39-4.65 60.77-4.4 61.14-4.15 61.59-4.15ZM79.24 9.8L79.24 9.8Q75.84 9.8 74.09 8.93 72.34 8.05 71.74 6.75 71.14 5.45 71.14 4.2L71.14 4.2Q71.14 2.35 72.14 0.88 73.14-0.6 74.79-1.68 76.44-2.75 78.44-3.3L78.44-3.3 80.19-1.7Q79.34-1.35 78.59-0.68 77.84 0 77.39 0.88 76.94 1.75 76.94 2.75L76.94 2.75Q76.94 3.35 77.19 3.8 77.44 4.25 78.09 4.48 78.74 4.7 79.84 4.7L79.84 4.7Q81.69 4.7 82.36 3.65 83.04 2.6 83.04 1.7L83.04 1.7Q83.04 0.85 82.71 0.33 82.39-0.2 81.19-0.53 79.99-0.85 77.34-1L77.34-1Q75.59-1.15 74.34-1.53 73.09-1.9 72.44-2.6 71.79-3.3 71.84-4.3L71.84-4.3Q71.89-5.15 72.31-6 72.74-6.85 73.66-7.8 74.59-8.75 76.04-9.8L76.04-9.8 79.34-8.75Q79.34-8.75 78.96-8.35 78.59-7.95 78.21-7.4 77.84-6.85 77.84-6.35L77.84-6.35Q77.84-5.75 79.09-5.68 80.34-5.6 82.14-5.3L82.14-5.3Q84.29-4.95 85.74-4.25 87.19-3.55 87.96-2.33 88.74-1.1 88.74 0.9L88.74 0.9Q88.74 3.35 87.76 5.38 86.79 7.4 84.71 8.6 82.64 9.8 79.24 9.8ZM79.79-7.7L79.79-7.7Q76.89-7.7 75.19-8.8 73.49-9.9 72.74-11.83 71.99-13.75 71.99-16.2L71.99-16.2Q71.99-19.75 73.01-21.78 74.04-23.8 75.94-24.65 77.84-25.5 80.44-25.5L80.44-25.5Q81.09-25.5 81.84-25.35 82.59-25.2 83.29-24.9L83.29-24.9 84.34-22.45Q85.94-21.65 86.91-20.08 87.89-18.5 87.89-15.85L87.89-15.85Q87.89-13.15 87.06-11.35 86.24-9.55 84.46-8.63 82.69-7.7 79.79-7.7ZM80.04-11.85L80.04-11.85Q80.79-11.85 81.26-12.28 81.74-12.7 81.99-13.9 82.24-15.1 82.24-17.35L82.24-17.35Q82.24-19.7 81.79-20.63 81.34-21.55 80.19-21.55L80.19-21.55Q79.54-21.55 79.01-21.1 78.49-20.65 78.21-19.55 77.94-18.45 77.94-16.45L77.94-16.45Q77.94-14.7 78.14-13.68 78.34-12.65 78.79-12.25 79.24-11.85 80.04-11.85ZM87.74-20.25L87.74-20.25Q86.99-20.25 85.81-20.63 84.64-21 83.46-21.5 82.29-22 81.51-22.38 80.74-22.75 80.74-22.75L80.74-22.75 81.04-25.05 88.89-25.05Q89.14-24.6 89.31-23.93 89.49-23.25 89.49-22.3L89.49-22.3Q89.49-21.2 88.99-20.73 88.49-20.25 87.74-20.25ZM98.14 0.5L98.14 0.5Q96.14 0.5 94.64 0.03 93.14-0.45 92.16-1.83 91.19-3.2 90.71-5.78 90.24-8.35 90.24-12.55L90.24-12.55Q90.24-19.35 92.41-22.43 94.59-25.5 98.54-25.5L98.54-25.5Q101.24-25.5 102.96-24.43 104.69-23.35 105.51-20.58 106.34-17.8 106.34-12.75L106.34-12.75Q106.34-5.5 104.26-2.5 102.19 0.5 98.14 0.5ZM98.29-4.15L98.29-4.15Q98.79-4.15 99.21-4.65 99.64-5.15 99.91-6.95 100.19-8.75 100.19-12.6L100.19-12.6Q100.19-16.2 100.04-17.98 99.89-19.75 99.49-20.3 99.09-20.85 98.34-20.85L98.34-20.85Q97.79-20.85 97.34-20.28 96.89-19.7 96.64-17.93 96.39-16.15 96.39-12.6L96.39-12.6Q96.39-9.7 96.51-7.98 96.64-6.25 96.86-5.45 97.09-4.65 97.46-4.4 97.84-4.15 98.29-4.15Z" opacity="1" transform="matrix(1,0,0,1,0,0)" fill="#c9efc7" class="undefined-text-0" data-fill-palette-color="primary" id="text-0"></path></svg></g></svg></g></svg></g></svg></g><g></g></svg></g></svg></g></svg></g><g><path d="M140.658 43.607A122.216 122.216 0 0 1 254.862 43.607L245.061 43.607A112.415 112.415 0 0 0 150.459 43.607L140.658 43.607M140.658 203.593A122.216 122.216 0 0 0 254.862 203.593L245.061 203.593A112.415 112.415 0 0 1 150.459 203.593L140.658 203.593" fill="#c9efc7" stroke="transparent" data-fill-palette-color="tertiary"></path></g></svg></g><defs></defs></svg><rect width="395.52" height="247.2" fill="none" stroke="none" visibility="hidden"></rect></g></svg></g></svg>