{
  "accessors": [
    {
      "bufferView": 2,
      "componentType": 5126,
      "count": 20774,
      "max": [
        1.7107789516448975,
        10.237683296203613,
        12.729230880737305
      ],
      "min": [
        -2.8442230224609375,
        -43.56621170043945,
        2.6270689964294434
      ],
      "type": "VEC3"
    },
    {
      "bufferView": 2,
      "byteOffset": 249288,
      "componentType": 5126,
      "count": 20774,
      "max": [
        1.0,
        1.0,
        1.0
      ],
      "min": [
        -1.0,
        -1.0,
        -1.0
      ],
      "type": "VEC3"
    },
    {
      "bufferView": 3,
      "componentType": 5126,
      "count": 20774,
      "max": [
        1.0,
        1.0,
        1.0,
        1.0
      ],
      "min": [
        -1.0,
        -1.0,
        -1.0,
        -1.0
      ],
      "type": "VEC4"
    },
    {
      "bufferView": 1,
      "componentType": 5126,
      "count": 20774,
      "max": [
        0.9953050017356873,
        0.9961259961128235
      ],
      "min": [
        0.0032049999572336674,
        0.003711000084877014
      ],
      "type": "VEC2"
    },
    {
      "bufferView": 0,
      "componentType": 5125,
      "count": 65604,
      "type": "SCALAR"
    },
    {
      "bufferView": 2,
      "byteOffset": 498576,
      "componentType": 5126,
      "count": 50,
      "max": [
        1.0126709938049316,
        -2.1408069133758545,
        12.23507022857666
      ],
      "min": [
        -1.0763260126113892,
        -15.27885913848877,
        10.146071434020996
      ],
      "type": "VEC3"
    },
    {
      "bufferView": 2,
      "byteOffset": 499176,
      "componentType": 5126,
      "count": 50,
      "max": [
        0.1178043782711029,
        1.0,
        0.1178043782711029
      ],
      "min": [
        -0.11770575493574142,
        -1.0,
        -0.11770575493574142
      ],
      "type": "VEC3"
    },
    {
      "bufferView": 1,
      "byteOffset": 166192,
      "componentType": 5126,
      "count": 50,
      "max": [
        1.0010629892349243,
        1.000586986541748
      ],
      "min": [
        -0.0007680000271648169,
        0.0005559999844990671
      ],
      "type": "VEC2"
    },
    {
      "bufferView": 0,
      "byteOffset": 262416,
      "componentType": 5125,
      "count": 144,
      "type": "SCALAR"
    }
  ],
  "asset": {
    "extras": {
      "author": "Vrato3D (https://sketchfab.com/VratoSych)",
      "license": "CC-BY-4.0 (http://creativecommons.org/licenses/by/4.0/)",
      "source": "https://sketchfab.com/3d-models/original-awp-dragon-lore-798ab94120064b8f8a9235367b773327",
      "title": "Original AWP | Dragon lore"
    },
    "generator": "Sketchfab-12.65.0",
    "version": "2.0"
  },
  "bufferViews": [
    {
      "buffer": 0,
      "byteLength": 262992,
      "name": "floatBufferViews",
      "target": 34963
    },
    {
      "buffer": 0,
      "byteLength": 166592,
      "byteOffset": 262992,
      "byteStride": 8,
      "name": "floatBufferViews",
      "target": 34962
    },
    {
      "buffer": 0,
      "byteLength": 499776,
      "byteOffset": 429584,
      "byteStride": 12,
      "name": "floatBufferViews",
      "target": 34962
    },
    {
      "buffer": 0,
      "byteLength": 332384,
      "byteOffset": 929360,
      "byteStride": 16,
      "name": "floatBufferViews",
      "target": 34962
    }
  ],
  "buffers": [
    {
      "byteLength": 1261744,
      "uri": "scene.bin"
    }
  ],
  "extensionsRequired": [
    "KHR_materials_pbrSpecularGlossiness"
  ],
  "extensionsUsed": [
    "KHR_materials_pbrSpecularGlossiness"
  ],
  "images": [
    {
      "uri": "textures/material_diffuse.png"
    },
    {
      "uri": "textures/material_specularGlossiness.png"
    },
    {
      "uri": "textures/material_emissive.png"
    },
    {
      "uri": "textures/material_normal.png"
    },
    {
      "uri": "textures/material_occlusion.png"
    }
  ],
  "materials": [
    {
      "doubleSided": true,
      "emissiveFactor": [
        1.0,
        1.0,
        1.0
      ],
      "emissiveTexture": {
        "index": 2
      },
      "extensions": {
        "KHR_materials_pbrSpecularGlossiness": {
          "diffuseFactor": [
            1.0,
            1.0,
            1.0,
            1.0
          ],
          "diffuseTexture": {
            "index": 0
          },
          "glossinessFactor": 0.85,
          "specularFactor": [
            0.5,
            0.5,
            0.5
          ],
          "specularGlossinessTexture": {
            "index": 1
          }
        }
      },
      "name": "material",
      "normalTexture": {
        "index": 3
      },
      "occlusionTexture": {
        "index": 4
      }
    },
    {
      "doubleSided": true,
      "extensions": {
        "KHR_materials_pbrSpecularGlossiness": {
          "diffuseFactor": [
            0.010849056,
            0.0125182254,
            0.0045466495000000004,
            1.0
          ],
          "glossinessFactor": 0.925,
          "specularFactor": [
            0.05,
            0.05,
            0.05
          ]
        }
      },
      "name": "lens"
    }
  ],
  "meshes": [
    {
      "name": "Object_0",
      "primitives": [
        {
          "attributes": {
            "NORMAL": 1,
            "POSITION": 0,
            "TANGENT": 2,
            "TEXCOORD_0": 3
          },
          "indices": 4,
          "material": 0,
          "mode": 4
        }
      ]
    },
    {
      "name": "Object_1",
      "primitives": [
        {
          "attributes": {
            "NORMAL": 6,
            "POSITION": 5,
            "TEXCOORD_0": 7
          },
          "indices": 8,
          "material": 1,
          "mode": 4
        }
      ]
    }
  ],
  "nodes": [
    {
      "children": [
        1
      ],
      "matrix": [
        0.02857142873108387,
        0.0,
        0.0,
        0.0,
        0.0,
        6.3441316047372065e-18,
        -0.02857142873108387,
        0.0,
        0.0,
        0.02857142873108387,
        6.3441316047372065e-18,
        0.0,
        0.0,
        0.0,
        0.0,
        1.0
      ],
      "name": "Sketchfab_model"
    },
    {
      "children": [
        2,
        3
      ],
      "name": "awp.obj.cleaner.materialmerger.gles"
    },
    {
      "mesh": 0,
      "name": "Object_2"
    },
    {
      "mesh": 1,
      "name": "Object_3"
    }
  ],
  "samplers": [
    {
      "magFilter": 9729,
      "minFilter": 9987,
      "wrapS": 10497,
      "wrapT": 10497
    }
  ],
  "scene": 0,
  "scenes": [
    {
      "name": "Sketchfab_Scene",
      "nodes": [
        0
      ]
    }
  ],
  "textures": [
    {
      "sampler": 0,
      "source": 0
    },
    {
      "sampler": 0,
      "source": 1
    },
    {
      "sampler": 0,
      "source": 2
    },
    {
      "sampler": 0,
      "source": 3
    },
    {
      "sampler": 0,
      "source": 4
    }
  ]
}
